<svg xmlns="http://www.w3.org/2000/svg" viewBox="0 0 29.257 27.958">
  <defs>
  <style>
  .cl {
    fill:white;
  }
  </style>
  </defs>
  <path id="Path_88" data-name="Path 88" class="cl" d="M56.325,41.109V51.927H50.053V41.834c0-2.534-.906-4.265-3.177-4.265a3.431,3.431,0,0,0-3.217,2.293,4.293,4.293,0,0,0-.208,1.529V51.926H37.179s.084-17.095,0-18.864h6.273v2.673c-.013.021-.03.042-.042.062h.042v-.062a6.228,6.228,0,0,1,5.653-3.116c4.127,0,7.22,2.7,7.22,8.489ZM30.617,23.969a3.269,3.269,0,1,0-.082,6.519h.041a3.27,3.27,0,1,0,.042-6.519ZM27.441,51.927h6.27V33.062h-6.27Z" transform="translate(-27.068 -23.969)"/>
</svg>