<svg xmlns="http://www.w3.org/2000/svg" viewBox="0 0 30.572 24.845">
  <defs>
  <style>
  .cl {
    fill:white;
  }
  </style>
  </defs>
  <path id="Path_89" data-name="Path 89" class="cl" d="M55.675,36.969a12.514,12.514,0,0,1-3.6.987,6.289,6.289,0,0,0,2.758-3.469,12.556,12.556,0,0,1-3.983,1.522A6.277,6.277,0,0,0,40.159,41.73a17.8,17.8,0,0,1-12.928-6.554,6.279,6.279,0,0,0,1.941,8.374,6.228,6.228,0,0,1-2.841-.785c0,.027,0,.053,0,.08a6.276,6.276,0,0,0,5.032,6.15,6.3,6.3,0,0,1-2.832.109,6.279,6.279,0,0,0,5.859,4.356,12.661,12.661,0,0,1-9.286,2.6,17.742,17.742,0,0,0,9.614,2.818c11.537,0,17.846-9.557,17.846-17.846,0-.272-.006-.543-.018-.811a12.719,12.719,0,0,0,3.13-3.246Z" transform="translate(-25.103 -34.028)"/>
</svg>