<svg xmlns="http://www.w3.org/2000/svg">
    <symbol id="vk" viewBox="0 0 101 101">
        <defs>
  <style>
  .cl {
    fill:white;
    cursor:pointer;
    z-index: -1;
  }
  .cl:hover {
    fill:#ffe130;
  }
  </style>
  </defs>
  <path id="Path_90" data-name="Path 90" class="cl" d="M34.8,58.43h2.06a1.737,1.737,0,0,0,.94-.411,1.507,1.507,0,0,0,.283-.9s-.04-2.764,1.242-3.17c1.264-.4,2.888,2.671,4.609,3.852a3.261,3.261,0,0,0,2.29.7l4.6-.064s2.407-.148,1.266-2.041a15.376,15.376,0,0,0-3.421-3.959c-2.885-2.678-2.5-2.245.977-6.877,2.117-2.821,2.963-4.543,2.7-5.281-.252-.7-1.809-.517-1.809-.517l-5.181.032a1.176,1.176,0,0,0-.669.118,1.452,1.452,0,0,0-.457.556,30,30,0,0,1-1.914,4.04c-2.307,3.917-3.229,4.124-3.606,3.881-.877-.567-.658-2.278-.658-3.493,0-3.8.576-5.379-1.121-5.789a8.846,8.846,0,0,0-2.418-.24,11.167,11.167,0,0,0-4.3.44c-.589.289-1.044.932-.767.969a2.325,2.325,0,0,1,1.529.769,5,5,0,0,1,.512,2.344s.3,4.469-.712,5.024c-.7.381-1.656-.4-3.713-3.951a33.038,33.038,0,0,1-1.85-3.833,1.54,1.54,0,0,0-.427-.577,2.147,2.147,0,0,0-.8-.321l-4.923.032s-.739.021-1.01.342c-.241.286-.019.877-.019.877s3.854,9.017,8.219,13.562A11.822,11.822,0,0,0,34.8,58.43Z" transform="translate(-17.939 -38.855)"/>
    </symbol>
</svg>